<mxfile host="app.diagrams.net" modified="2021-11-20T04:02:40.130Z" agent="5.0 (Macintosh; Intel Mac OS X 10_15_6) AppleWebKit/537.36 (KHTML, like Gecko) Chrome/95.0.4638.69 Safari/537.36" etag="v6C35S-TzrcN1vJm9IC9" version="15.7.4" type="github">
  <diagram id="dFZDkdw9oR6leH0Qqh9Z" name="Page-1">
    <mxGraphModel dx="946" dy="530" grid="1" gridSize="10" guides="1" tooltips="1" connect="1" arrows="1" fold="1" page="1" pageScale="1" pageWidth="827" pageHeight="1169" background="none" math="0" shadow="1">
      <root>
        <mxCell id="0" />
        <mxCell id="1" parent="0" />
        <mxCell id="uvSu8wLFIg_Yb7Uv35T6-1" value="conf-dashboard" style="rounded=1;whiteSpace=wrap;html=1;" vertex="1" parent="1">
          <mxGeometry x="665" y="287.5" width="120" height="60" as="geometry" />
        </mxCell>
        <mxCell id="uvSu8wLFIg_Yb7Uv35T6-2" value="UI(前端)" style="rounded=1;whiteSpace=wrap;html=1;" vertex="1" parent="1">
          <mxGeometry x="665" y="140" width="120" height="60" as="geometry" />
        </mxCell>
        <mxCell id="uvSu8wLFIg_Yb7Uv35T6-3" value="业务服务" style="rounded=1;whiteSpace=wrap;html=1;" vertex="1" parent="1">
          <mxGeometry x="67" y="274.5" width="120" height="60" as="geometry" />
        </mxCell>
        <mxCell id="uvSu8wLFIg_Yb7Uv35T6-5" value="redis/etcd" style="strokeWidth=1;html=1;shape=mxgraph.flowchart.multi-document;whiteSpace=wrap;" vertex="1" parent="1">
          <mxGeometry x="390" y="452.5" width="88" height="60" as="geometry" />
        </mxCell>
        <mxCell id="uvSu8wLFIg_Yb7Uv35T6-6" value="conf-dashboard" style="rounded=1;whiteSpace=wrap;html=1;" vertex="1" parent="1">
          <mxGeometry x="675" y="297.5" width="120" height="60" as="geometry" />
        </mxCell>
        <mxCell id="uvSu8wLFIg_Yb7Uv35T6-7" value="conf-dashboard" style="rounded=1;whiteSpace=wrap;html=1;" vertex="1" parent="1">
          <mxGeometry x="685" y="307.5" width="120" height="60" as="geometry" />
        </mxCell>
        <mxCell id="uvSu8wLFIg_Yb7Uv35T6-8" value="lib/agent" style="rounded=1;whiteSpace=wrap;html=1;strokeWidth=1;dashed=1;" vertex="1" parent="1">
          <mxGeometry x="167" y="294.5" width="60" height="20" as="geometry" />
        </mxCell>
        <mxCell id="uvSu8wLFIg_Yb7Uv35T6-9" value="业务服务" style="rounded=1;whiteSpace=wrap;html=1;" vertex="1" parent="1">
          <mxGeometry x="77" y="284.5" width="120" height="60" as="geometry" />
        </mxCell>
        <mxCell id="uvSu8wLFIg_Yb7Uv35T6-10" value="lib/agent" style="rounded=1;whiteSpace=wrap;html=1;strokeWidth=1;dashed=1;" vertex="1" parent="1">
          <mxGeometry x="177" y="304.5" width="60" height="20" as="geometry" />
        </mxCell>
        <mxCell id="uvSu8wLFIg_Yb7Uv35T6-11" value="app service" style="rounded=1;whiteSpace=wrap;html=1;" vertex="1" parent="1">
          <mxGeometry x="87" y="294.5" width="120" height="60" as="geometry" />
        </mxCell>
        <mxCell id="uvSu8wLFIg_Yb7Uv35T6-12" value="conf lib/agent" style="rounded=1;whiteSpace=wrap;html=1;strokeWidth=1;dashed=1;" vertex="1" parent="1">
          <mxGeometry x="187" y="314.5" width="80" height="20" as="geometry" />
        </mxCell>
        <mxCell id="uvSu8wLFIg_Yb7Uv35T6-14" value="" style="endArrow=classic;startArrow=classic;html=1;rounded=0;exitX=0.011;exitY=0.083;exitDx=0;exitDy=0;exitPerimeter=0;" edge="1" parent="1" source="uvSu8wLFIg_Yb7Uv35T6-5">
          <mxGeometry width="50" height="50" relative="1" as="geometry">
            <mxPoint x="390" y="430" as="sourcePoint" />
            <mxPoint x="220" y="340" as="targetPoint" />
          </mxGeometry>
        </mxCell>
        <mxCell id="uvSu8wLFIg_Yb7Uv35T6-16" value="" style="endArrow=classic;startArrow=classic;html=1;rounded=0;entryX=0.5;entryY=0;entryDx=0;entryDy=0;exitX=0.5;exitY=1;exitDx=0;exitDy=0;" edge="1" parent="1" source="uvSu8wLFIg_Yb7Uv35T6-2" target="uvSu8wLFIg_Yb7Uv35T6-1">
          <mxGeometry width="50" height="50" relative="1" as="geometry">
            <mxPoint x="495" y="427.5" as="sourcePoint" />
            <mxPoint x="545" y="377.5" as="targetPoint" />
          </mxGeometry>
        </mxCell>
        <mxCell id="uvSu8wLFIg_Yb7Uv35T6-17" value="http RESTful api CRUD&amp;nbsp; json" style="text;html=1;align=center;verticalAlign=middle;resizable=0;points=[];autosize=1;strokeColor=none;fillColor=none;" vertex="1" parent="1">
          <mxGeometry x="640" y="224" width="170" height="20" as="geometry" />
        </mxCell>
        <mxCell id="uvSu8wLFIg_Yb7Uv35T6-18" value="" style="endArrow=classic;startArrow=classic;html=1;rounded=0;exitX=0.5;exitY=1;exitDx=0;exitDy=0;entryX=0.5;entryY=0;entryDx=0;entryDy=0;entryPerimeter=0;" edge="1" parent="1">
          <mxGeometry width="50" height="50" relative="1" as="geometry">
            <mxPoint x="724.5" y="367.5" as="sourcePoint" />
            <mxPoint x="725" y="442.5" as="targetPoint" />
          </mxGeometry>
        </mxCell>
        <mxCell id="uvSu8wLFIg_Yb7Uv35T6-19" value="" style="endArrow=classic;startArrow=classic;html=1;rounded=0;entryX=0;entryY=1;entryDx=0;entryDy=0;exitX=1;exitY=0.142;exitDx=0;exitDy=0;exitPerimeter=0;" edge="1" parent="1" source="uvSu8wLFIg_Yb7Uv35T6-5" target="uvSu8wLFIg_Yb7Uv35T6-7">
          <mxGeometry width="50" height="50" relative="1" as="geometry">
            <mxPoint x="460" y="460" as="sourcePoint" />
            <mxPoint x="440" y="370" as="targetPoint" />
          </mxGeometry>
        </mxCell>
        <mxCell id="uvSu8wLFIg_Yb7Uv35T6-20" value="" style="endArrow=classic;html=1;rounded=0;entryX=0;entryY=0.25;entryDx=0;entryDy=0;" edge="1" parent="1" target="uvSu8wLFIg_Yb7Uv35T6-1">
          <mxGeometry width="50" height="50" relative="1" as="geometry">
            <mxPoint x="240" y="303" as="sourcePoint" />
            <mxPoint x="440" y="370" as="targetPoint" />
          </mxGeometry>
        </mxCell>
        <mxCell id="uvSu8wLFIg_Yb7Uv35T6-21" value="" style="endArrow=classic;html=1;rounded=0;exitX=-0.033;exitY=0.883;exitDx=0;exitDy=0;exitPerimeter=0;" edge="1" parent="1">
          <mxGeometry width="50" height="50" relative="1" as="geometry">
            <mxPoint x="661.04" y="329.48" as="sourcePoint" />
            <mxPoint x="270" y="332" as="targetPoint" />
          </mxGeometry>
        </mxCell>
        <mxCell id="uvSu8wLFIg_Yb7Uv35T6-22" value="put/pub" style="text;html=1;align=center;verticalAlign=middle;resizable=0;points=[];autosize=1;strokeColor=none;fillColor=none;" vertex="1" parent="1">
          <mxGeometry x="540" y="422.5" width="60" height="20" as="geometry" />
        </mxCell>
        <mxCell id="uvSu8wLFIg_Yb7Uv35T6-23" value="watch/sub" style="text;html=1;align=center;verticalAlign=middle;resizable=0;points=[];autosize=1;strokeColor=none;fillColor=none;" vertex="1" parent="1">
          <mxGeometry x="267" y="422.5" width="70" height="20" as="geometry" />
        </mxCell>
        <mxCell id="uvSu8wLFIg_Yb7Uv35T6-24" value="/confdashboard/v1/getcurversion 业务主动获取配置版本&lt;br&gt;/confdashboard/v1/getcurserverconf 业务主动获取配置&lt;br&gt;/confdashboard/v1/reportBizServConf 业务主动上报" style="text;html=1;align=center;verticalAlign=middle;resizable=0;points=[];autosize=1;strokeColor=none;fillColor=none;" vertex="1" parent="1">
          <mxGeometry x="290" y="250.5" width="310" height="50" as="geometry" />
        </mxCell>
        <mxCell id="uvSu8wLFIg_Yb7Uv35T6-25" value="/{serviceType}/localconf/prepare &lt;br&gt;向业务服务发起配置准备工作&lt;br&gt;/{serviceType}/localconf/commit&amp;nbsp;&lt;br&gt;向业务服务发起提交修改配置&lt;br&gt;/{serviceType}/localconf/meta&lt;br&gt;向业务服务获取本地配置元数据" style="text;whiteSpace=wrap;html=1;" vertex="1" parent="1">
          <mxGeometry x="360" y="327.5" width="200" height="30" as="geometry" />
        </mxCell>
        <mxCell id="uvSu8wLFIg_Yb7Uv35T6-26" value="w/r conf" style="text;html=1;align=center;verticalAlign=middle;resizable=0;points=[];autosize=1;strokeColor=none;fillColor=none;" vertex="1" parent="1">
          <mxGeometry x="720" y="410" width="60" height="20" as="geometry" />
        </mxCell>
        <mxCell id="uvSu8wLFIg_Yb7Uv35T6-27" value="mysqld" style="shape=datastore;whiteSpace=wrap;html=1;strokeWidth=1;" vertex="1" parent="1">
          <mxGeometry x="695" y="442.5" width="60" height="67.5" as="geometry" />
        </mxCell>
        <mxCell id="uvSu8wLFIg_Yb7Uv35T6-28" value="w/r" style="text;html=1;align=center;verticalAlign=middle;resizable=0;points=[];autosize=1;strokeColor=none;fillColor=none;" vertex="1" parent="1">
          <mxGeometry x="605" y="400" width="30" height="20" as="geometry" />
        </mxCell>
      </root>
    </mxGraphModel>
  </diagram>
</mxfile>
